<svg data-v-423bf9ae="" xmlns="http://www.w3.org/2000/svg" viewBox="0 0 444 90" class="iconLeftSlogan"><!----><!----><!----><g data-v-423bf9ae="" id="7e122b41-9b69-4c33-87f7-3efd8184315a" fill="black" transform="matrix(3.853564622736968,0,0,3.853564622736968,108.36612994601703,-9.32562668102711)"><path d="M8.16 17.14Q5.19 17.14 5.19 14.71L5.19 14.71L5.19 14.11Q3.88 13.93 2.87 13.15Q1.86 12.36 1.31 11.12Q0.76 9.87 0.76 8.30L0.76 8.30Q0.76 6.58 1.43 5.24Q2.10 3.91 3.30 3.16Q4.51 2.42 6.03 2.42L6.03 2.42Q7.56 2.42 8.76 3.16Q9.97 3.91 10.64 5.24Q11.31 6.58 11.31 8.30L11.31 8.30Q11.31 9.86 10.76 11.10Q10.21 12.35 9.21 13.13Q8.22 13.92 6.92 14.11L6.92 14.11L6.92 15.05Q6.92 16.81 8.62 16.81L8.62 16.81L8.62 17.14L8.16 17.14ZM6.03 13.86Q7.04 13.86 7.84 13.33Q8.64 12.80 9.09 11.79Q9.55 10.78 9.55 9.38L9.55 9.38L9.55 7.22Q9.55 5.82 9.09 4.82Q8.64 3.81 7.84 3.28Q7.04 2.74 6.03 2.74L6.03 2.74Q5.01 2.74 4.22 3.28Q3.43 3.81 2.98 4.82Q2.52 5.82 2.52 7.22L2.52 7.22L2.52 9.38Q2.52 10.78 2.98 11.79Q3.43 12.80 4.22 13.33Q5.01 13.86 6.03 13.86L6.03 13.86ZM15.46 14.04Q14.45 14.04 13.87 13.54Q13.29 13.03 13.29 12.04L13.29 12.04L13.29 7.07L12.31 6.93L12.31 6.65L14.69 6.65L14.69 12.01Q14.69 12.73 14.98 13.13Q15.27 13.54 15.89 13.54L15.89 13.54Q16.53 13.54 17.13 13.11Q17.72 12.68 18.19 12.05L18.19 12.05L18.19 7.07L17.21 6.93L17.21 6.65L19.59 6.65L19.59 13.48L20.57 13.62L20.57 13.90L18.19 13.90L18.19 12.56Q17.68 13.26 16.98 13.65Q16.27 14.04 15.46 14.04L15.46 14.04ZM25.21 14.04Q24.18 14.04 23.34 13.57Q22.50 13.10 22.01 12.25Q21.52 11.40 21.52 10.28L21.52 10.28Q21.52 9.16 22.00 8.31Q22.48 7.46 23.30 6.99Q24.12 6.52 25.13 6.52L25.13 6.52Q26.01 6.52 26.71 6.92Q27.41 7.31 27.80 8.00Q28.20 8.69 28.21 9.59L28.21 9.59L23.06 9.59L23.06 10.98Q23.06 12.21 23.61 12.97Q24.16 13.73 25.21 13.73L25.21 13.73Q26.18 13.73 26.92 13.19Q27.66 12.64 27.83 11.77L27.83 11.77L28.15 11.77Q27.96 12.81 27.16 13.43Q26.36 14.04 25.21 14.04L25.21 14.04ZM23.07 9.24L26.67 9.24Q26.67 8.02 26.29 7.43Q25.91 6.83 25.12 6.83L25.12 6.83Q24.18 6.83 23.66 7.49Q23.14 8.15 23.07 9.24L23.07 9.24ZM29.15 13.90L29.15 13.62L30.13 13.48L30.13 7.07L29.15 6.93L29.15 6.65L31.53 6.65L31.53 7.73Q32.41 6.52 33.52 6.52L33.52 6.52Q34.05 6.52 34.45 6.80Q34.86 7.07 34.86 7.57L34.86 7.57Q34.86 7.94 34.62 8.18Q34.38 8.43 33.99 8.43L33.99 8.43Q33.54 8.43 33.26 8.08L33.26 8.08Q33.42 7.88 33.42 7.66L33.42 7.66Q33.42 7.42 33.26 7.27Q33.10 7.13 32.83 7.13L32.83 7.13Q32.54 7.13 32.23 7.40Q31.92 7.67 31.53 8.25L31.53 8.25L31.53 13.48L32.65 13.62L32.65 13.90L29.15 13.90ZM36.61 17.99Q35.88 17.99 35.43 17.63Q34.99 17.26 34.99 16.65L34.99 16.65Q34.99 16.23 35.23 15.97Q35.48 15.71 35.84 15.71L35.84 15.71Q36.11 15.71 36.32 15.82Q36.53 15.93 36.65 16.16L36.65 16.16Q36.44 16.45 36.44 16.77L36.44 16.77Q36.44 17.05 36.62 17.23Q36.81 17.42 37.09 17.42L37.09 17.42Q37.42 17.42 37.67 17.19Q37.91 16.97 38.11 16.41L38.11 16.41L38.95 14.00L35.70 7.08L34.76 6.94L34.76 6.66L38.25 6.66L38.25 6.94L37.27 7.11L39.61 12.11L41.27 7.29L40.07 6.94L40.07 6.66L42.59 6.66L42.59 6.94L41.64 7.29L38.50 16.41Q38.21 17.23 37.79 17.61Q37.38 17.99 36.61 17.99L36.61 17.99ZM50.61 17.14Q47.64 17.14 47.64 14.71L47.64 14.71L47.64 14.11Q46.33 13.93 45.32 13.15Q44.31 12.36 43.76 11.12Q43.20 9.87 43.20 8.30L43.20 8.30Q43.20 6.58 43.88 5.24Q44.55 3.91 45.75 3.16Q46.96 2.42 48.48 2.42L48.48 2.42Q50.01 2.42 51.21 3.16Q52.42 3.91 53.09 5.24Q53.76 6.58 53.76 8.30L53.76 8.30Q53.76 9.86 53.21 11.10Q52.65 12.35 51.66 13.13Q50.67 13.92 49.36 14.11L49.36 14.11L49.36 15.05Q49.36 16.81 51.07 16.81L51.07 16.81L51.07 17.14L50.61 17.14ZM48.48 13.86Q49.49 13.86 50.29 13.33Q51.09 12.80 51.54 11.79Q52.00 10.78 52.00 9.38L52.00 9.38L52.00 7.22Q52.00 5.82 51.54 4.82Q51.09 3.81 50.29 3.28Q49.49 2.74 48.48 2.74L48.48 2.74Q47.46 2.74 46.67 3.28Q45.88 3.81 45.42 4.82Q44.97 5.82 44.97 7.22L44.97 7.22L44.97 9.38Q44.97 10.78 45.42 11.79Q45.88 12.80 46.67 13.33Q47.46 13.86 48.48 13.86L48.48 13.86ZM57.90 14.04Q56.90 14.04 56.31 13.54Q55.73 13.03 55.73 12.04L55.73 12.04L55.73 7.07L54.75 6.93L54.75 6.65L57.13 6.65L57.13 12.01Q57.13 12.73 57.43 13.13Q57.72 13.54 58.34 13.54L58.34 13.54Q58.98 13.54 59.58 13.11Q60.17 12.68 60.63 12.05L60.63 12.05L60.63 7.07L59.65 6.93L59.65 6.65L62.03 6.65L62.03 13.48L63.01 13.62L63.01 13.90L60.63 13.90L60.63 12.56Q60.13 13.26 59.42 13.65Q58.72 14.04 57.90 14.04L57.90 14.04ZM66.05 14.04Q65.16 14.04 64.58 13.57Q64.01 13.10 64.01 12.18L64.01 12.18Q64.01 10.86 65.11 10.31Q66.22 9.76 67.68 9.76L67.68 9.76L68.61 9.76L68.61 8.68Q68.61 7.95 68.45 7.55Q68.29 7.15 67.96 6.99Q67.62 6.83 67.05 6.83L67.05 6.83Q66.39 6.83 66.07 7.09Q65.74 7.35 65.74 7.78L65.74 7.78Q65.74 8.19 66.14 8.32L66.14 8.32Q66.14 8.67 65.87 8.93Q65.60 9.20 65.24 9.20L65.24 9.20Q64.85 9.20 64.61 8.98Q64.37 8.76 64.37 8.32L64.37 8.32Q64.37 7.50 65.18 7.01Q66.00 6.52 67.21 6.52L67.21 6.52Q70.01 6.52 70.01 8.96L70.01 8.96L70.01 12.96Q70.01 13.27 70.15 13.43Q70.28 13.59 70.53 13.59L70.53 13.59Q70.77 13.59 70.91 13.43Q71.05 13.27 71.05 12.99L71.05 12.99L71.34 12.99Q71.34 13.48 71.03 13.76Q70.71 14.04 70.15 14.04L70.15 14.04Q69.51 14.04 69.07 13.67Q68.63 13.30 68.61 12.52L68.61 12.52Q68.28 13.23 67.58 13.64Q66.89 14.04 66.05 14.04L66.05 14.04ZM66.82 13.43Q67.20 13.43 67.60 13.20Q68.00 12.98 68.28 12.55Q68.56 12.12 68.61 11.52L68.61 11.52L68.61 10.07L67.68 10.07Q66.53 10.07 65.96 10.58Q65.39 11.09 65.39 12.01L65.39 12.01Q65.39 12.78 65.76 13.10Q66.12 13.43 66.82 13.43L66.82 13.43ZM75.53 14.04Q74.52 14.04 73.70 13.57Q72.87 13.10 72.39 12.24Q71.90 11.38 71.90 10.28L71.90 10.28Q71.90 9.11 72.41 8.26Q72.93 7.41 73.75 6.97Q74.58 6.52 75.53 6.52L75.53 6.52Q76.33 6.52 76.99 6.80Q77.64 7.07 78.03 7.56Q78.41 8.05 78.41 8.67L78.41 8.67Q78.41 9.13 78.18 9.37Q77.94 9.62 77.55 9.62L77.55 9.62Q77.17 9.62 76.92 9.37Q76.66 9.11 76.66 8.74L76.66 8.74Q76.87 8.60 76.96 8.43Q77.04 8.26 77.04 8.01L77.04 8.01Q77.04 7.49 76.63 7.16Q76.22 6.83 75.53 6.83L75.53 6.83Q74.52 6.83 73.98 7.55Q73.44 8.27 73.44 9.58L73.44 9.58L73.44 10.98Q73.44 12.22 73.97 12.98Q74.49 13.73 75.53 13.73L75.53 13.73Q76.48 13.73 77.19 13.20Q77.90 12.66 78.06 11.77L78.06 11.77L78.39 11.77Q78.19 12.81 77.41 13.43Q76.64 14.04 75.53 14.04L75.53 14.04ZM82.46 13.90L79.24 13.90L79.24 13.62L80.22 13.48L80.22 3.12L79.24 2.98L79.24 2.70L81.62 2.70L81.62 9.88L84.83 7.25L83.61 6.93L83.61 6.65L86.24 6.65L86.24 6.93L85.34 7.25L83.02 9.16L86.30 13.50L87.05 13.62L87.05 13.90L83.78 13.90L83.78 13.62L84.62 13.48L81.98 10.01L81.62 10.32L81.62 13.48L82.46 13.62L82.46 13.90Z"></path></g><!----><g data-v-423bf9ae="" id="87ff10d1-ba5c-4624-afc5-f5a001d6edef" transform="matrix(2.852072528086791,0,0,2.852072528086791,0.3618419448213217,-0.41116010653409063)" stroke="none" fill="black"><path d="M16 23.787L8.102 16 16 8.213 23.898 16 16 23.787zM9.525 16L16 22.383 22.475 16 16 9.617 9.525 16z"></path><path d="M15.915 31.778L-.005 16.084 16.085.222l15.92 15.694-16.09 15.862zM1.419 16.084l14.496 14.29 14.666-14.458-14.496-14.29L1.419 16.084z"></path><path d="M15.5.924h1v30.152h-1z"></path></g><!----><g data-v-423bf9ae="" id="cfd7b8f5-0394-4485-ad53-e117db3b6895" fill="black" transform="matrix(0.5816535963902517,0,0,0.5816535963902517,110.9516611405264,58.3132034322642)"><path d="M0.59 7.84C0.59 10.93 2.77 12.25 5.24 12.59C5.35 12.60 5.39 12.60 5.39 12.61C5.39 12.63 5.38 12.64 5.29 12.68C4.86 12.89 3.91 13.30 3.56 13.40C3.26 13.47 3.01 13.48 2.77 13.48C2.67 13.48 2.56 13.47 2.46 13.47C2.23 13.47 2.07 13.51 2.07 13.72C2.07 13.90 2.39 14.35 2.62 14.35C2.76 14.35 3.22 14.10 3.56 14.10C4.28 14.10 6.51 15.26 8.44 15.26C9.48 15.26 10.68 14.38 10.68 14.14C10.68 14.06 10.50 13.86 10.44 13.86C10.32 13.86 9.90 14.29 8.95 14.29C8.34 14.29 7.39 13.93 6.44 13.72C5.87 13.59 5.04 13.57 4.59 13.54C4.35 13.52 4.48 13.48 4.59 13.43C5.21 13.15 6.59 12.54 6.93 12.45C8.95 11.87 10.37 10.11 10.37 7.84C10.37 5.10 8.29 3.11 5.49 3.11C2.90 3.11 0.59 4.79 0.59 7.84ZM1.89 7.62C1.89 5.49 3.37 3.58 5.35 3.58C7.60 3.58 8.92 5.82 8.92 7.95C8.92 11.06 6.48 12.31 6.08 12.31C5.77 12.31 3.85 11.80 3.07 10.91C2.37 10.11 1.89 8.89 1.89 7.62ZM18.48 3.51C18.48 3.75 18.56 3.77 18.73 3.77L19.26 3.77C19.32 3.77 19.32 4.12 19.32 4.55C19.32 5.66 19.31 8.96 19.31 9.42C19.31 11.13 19.56 12.80 22.41 12.80C23.49 12.80 24.65 12.38 25.31 12.00C25.56 11.86 25.86 11.72 25.94 11.72C26.21 11.72 26.47 12.74 26.81 12.74C27.13 12.74 27.15 12.35 27.15 12.25C27.15 11.96 27.20 10.08 27.24 8.16C27.30 6.12 27.29 3.77 27.40 3.77L27.72 3.77C27.94 3.77 28.01 3.75 28.01 3.56C28.01 3.32 27.97 3.26 27.78 3.26C27.64 3.26 27.10 3.30 26.68 3.30C26.26 3.30 25.47 3.26 25.24 3.26C25.06 3.26 24.96 3.28 24.96 3.51C24.96 3.75 25.07 3.77 25.24 3.77L25.94 3.77C26.01 3.77 26.03 4.30 26.03 4.87L26.03 9.14C26.03 11.19 26.03 11.12 25.69 11.34C25.30 11.61 24.49 12.08 23.31 12.08C21.34 12.08 20.54 11.17 20.54 9.41C20.54 8.82 20.61 3.77 20.72 3.77L21.63 3.77C21.85 3.77 21.90 3.75 21.90 3.56C21.90 3.32 21.88 3.26 21.69 3.26C21.36 3.26 20.48 3.30 20.06 3.30C19.64 3.30 18.96 3.26 18.73 3.26C18.55 3.26 18.48 3.28 18.48 3.51ZM35.49 12.39C35.49 12.63 35.49 12.68 35.69 12.68C35.85 12.68 36.18 12.64 36.75 12.64C37.37 12.64 37.91 12.68 38.07 12.68C38.23 12.68 38.23 12.61 38.23 12.40C38.23 12.24 38.23 12.18 38.07 12.18L36.99 12.18C36.99 12.18 36.97 12.18 36.97 12.17C36.99 11.87 37.76 9.90 38.11 9.02C38.18 8.83 38.19 8.79 38.40 8.79L41.23 8.79C41.37 8.79 41.37 8.81 41.44 9.03C41.71 9.77 42.42 11.89 42.42 12.17C42.42 12.18 42.41 12.18 42.41 12.18L41.64 12.18C41.41 12.18 41.40 12.19 41.40 12.39C41.40 12.63 41.41 12.68 41.58 12.68C41.90 12.68 42.77 12.64 43.19 12.64C43.61 12.64 44.28 12.68 44.49 12.68C44.63 12.68 44.65 12.61 44.65 12.40C44.65 12.24 44.63 12.18 44.49 12.18L44.00 12.18C43.90 12.18 42.88 9.34 42.32 7.78L40.64 3.07C40.63 3.00 40.56 2.94 40.47 2.94C40.35 2.94 40.25 3.16 40.17 3.35C40.01 3.71 39.77 3.84 39.66 4.13L38.18 7.57C38.00 8.01 36.29 12.18 36.16 12.18L35.74 12.18C35.52 12.18 35.49 12.19 35.49 12.39ZM38.39 8.33C38.39 8.30 38.42 8.23 38.46 8.13L39.83 4.77C39.87 4.66 39.90 4.61 39.93 4.61C39.94 4.61 39.96 4.63 40.00 4.77L41.16 8.18C41.19 8.25 41.20 8.29 41.20 8.32C41.20 8.36 41.17 8.37 41.08 8.37L38.57 8.37C38.39 8.37 38.39 8.34 38.39 8.33ZM52.19 7.91C52.19 11.31 54.56 12.87 57.15 12.87C58.93 12.87 60.70 11.90 60.75 11.59C60.91 10.29 60.97 9.70 60.97 9.66C60.97 9.56 60.93 9.52 60.76 9.51C60.70 9.51 60.65 9.49 60.61 9.49C60.49 9.49 60.44 9.53 60.41 9.70L60.23 11.33C60.21 11.45 59.11 12.24 57.54 12.24C55.41 12.24 53.70 10.29 53.70 7.94C53.70 5.42 55.13 3.54 57.13 3.54C58.98 3.54 60.33 5.01 60.33 5.17C60.33 5.29 60.27 6.40 60.27 6.45C60.27 6.59 60.31 6.64 60.58 6.64C60.77 6.64 60.84 6.62 60.84 6.44C60.84 5.73 60.90 3.92 60.90 3.67C60.90 3.47 60.79 3.44 60.58 3.44C60.35 3.44 60.33 3.50 60.33 3.67L60.33 4.05C60.33 4.16 60.28 4.16 60.16 4.06C59.88 3.86 58.90 3.04 57.23 3.04C54.39 3.04 52.19 4.96 52.19 7.91ZM69.36 12.39C69.36 12.63 69.37 12.68 69.57 12.68C69.89 12.68 70.78 12.64 71.20 12.64C71.62 12.64 72.58 12.68 72.90 12.68C73.07 12.68 73.08 12.61 73.08 12.40C73.08 12.24 73.05 12.18 72.88 12.18L71.88 12.18C71.78 12.18 71.75 10.12 71.75 8.46C71.75 8.30 71.75 8.30 71.92 8.30L72.18 8.30C72.39 8.30 72.39 8.32 72.46 8.40L75.50 12.00C75.60 12.11 75.67 12.18 75.46 12.18L75.00 12.18C74.82 12.18 74.75 12.19 74.75 12.39C74.75 12.63 74.75 12.68 74.94 12.68C75.26 12.68 75.96 12.64 76.38 12.64C76.80 12.64 77.49 12.68 77.81 12.68C77.98 12.68 77.98 12.61 77.98 12.40C77.98 12.24 77.98 12.18 77.81 12.18L77.59 12.18C77.41 12.18 77.31 12.10 77.18 11.96L73.42 7.62C73.28 7.45 73.25 7.50 73.37 7.36C73.82 6.83 76.36 3.77 76.43 3.77L77.10 3.77C77.32 3.77 77.35 3.75 77.35 3.56C77.35 3.32 77.35 3.26 77.15 3.26C76.96 3.26 76.51 3.30 75.99 3.30C75.46 3.30 74.98 3.26 74.76 3.26C74.58 3.26 74.48 3.28 74.48 3.51C74.48 3.75 74.59 3.77 74.76 3.77L75.32 3.77C75.49 3.77 75.49 3.84 75.38 3.99C74.84 4.66 72.49 7.92 72.20 7.92L71.89 7.92C71.75 7.92 71.75 7.88 71.75 7.69L71.75 5.94C71.75 5.21 71.82 3.77 71.92 3.77L72.69 3.77C72.91 3.77 72.95 3.75 72.95 3.56C72.95 3.32 72.94 3.26 72.74 3.26C72.42 3.26 71.65 3.30 71.23 3.30C70.64 3.30 69.99 3.26 69.76 3.26C69.58 3.26 69.48 3.28 69.48 3.51C69.48 3.75 69.59 3.77 69.76 3.77L70.41 3.77C70.46 3.77 70.49 4.86 70.49 5.78L70.49 9.84C70.49 11.00 70.48 12.18 70.39 12.18L69.65 12.18C69.43 12.18 69.36 12.19 69.36 12.39ZM94.99 5.01C94.99 5.17 95.17 5.17 95.30 5.17C95.45 5.17 95.49 5.15 95.51 4.97L95.62 3.89C95.63 3.81 96.18 3.75 96.94 3.75L98.92 3.75C98.98 3.75 99.01 4.35 99.01 4.97C99.01 6.43 98.95 12.18 98.83 12.18L97.96 12.18C97.73 12.18 97.69 12.19 97.69 12.39C97.69 12.63 97.71 12.68 97.90 12.68C98.22 12.68 99.20 12.64 99.62 12.64C100.04 12.64 100.98 12.68 101.30 12.68C101.47 12.68 101.50 12.61 101.50 12.40C101.50 12.24 101.47 12.18 101.30 12.18L100.31 12.18C100.28 12.18 100.28 11.76 100.28 11.31C100.28 9.56 100.37 5.96 100.37 5.92C100.38 5.18 100.38 3.75 100.48 3.75L102.09 3.75C102.80 3.75 103.63 3.78 103.63 3.85C103.63 3.99 103.59 4.90 103.59 4.97C103.59 5.12 103.66 5.17 103.84 5.17C104.03 5.17 104.10 5.17 104.10 5.03C104.10 3.93 104.16 3.40 104.16 3.14C104.16 2.94 104.08 2.94 103.88 2.94C103.73 2.94 103.67 2.98 103.66 3.16C103.66 3.23 103.01 3.28 102.17 3.28L97.17 3.28C96.52 3.28 95.70 3.28 95.70 3.21L95.70 3.07C95.70 2.94 95.58 2.94 95.48 2.94C95.26 2.94 95.23 3.00 95.21 3.19C95.16 3.89 94.99 4.97 94.99 5.01ZM111.92 12.39C111.92 12.63 111.92 12.68 112.11 12.68C112.43 12.68 113.37 12.64 113.79 12.64C114.21 12.64 115.04 12.68 115.36 12.68C115.53 12.68 115.53 12.61 115.53 12.40C115.53 12.24 115.53 12.18 115.36 12.18L114.44 12.18C114.35 12.18 114.31 9.93 114.31 8.20C114.31 8.01 114.31 8.01 114.44 8.01L119.67 8.01C119.74 8.01 119.76 8.01 119.76 8.18L119.76 9.91C119.76 11.05 119.74 12.18 119.69 12.18L118.92 12.18C118.69 12.18 118.65 12.19 118.65 12.39C118.65 12.63 118.66 12.68 118.86 12.68C119.18 12.68 120.02 12.64 120.44 12.64C120.86 12.64 121.45 12.68 121.77 12.68C121.94 12.68 121.95 12.61 121.95 12.40C121.95 12.24 121.94 12.18 121.77 12.18L121.03 12.18C120.99 12.18 120.97 9.27 120.97 7.04C120.97 5.40 120.97 3.70 121.02 3.70L121.63 3.70C121.86 3.70 121.90 3.68 121.90 3.49C121.90 3.25 121.88 3.19 121.69 3.19C121.55 3.19 120.92 3.23 120.33 3.23C119.66 3.23 119.06 3.19 118.83 3.19C118.64 3.19 118.61 3.22 118.61 3.44C118.61 3.67 118.68 3.70 118.85 3.70L119.64 3.70C119.70 3.70 119.76 4.79 119.76 5.71L119.76 7.42C119.76 7.59 119.76 7.59 119.59 7.59L114.48 7.59C114.31 7.59 114.31 7.59 114.31 7.38C114.31 6.96 114.30 6.23 114.30 5.53C114.30 4.66 114.31 3.70 114.37 3.70L115.14 3.70C115.36 3.70 115.40 3.68 115.40 3.49C115.40 3.25 115.39 3.19 115.19 3.19C114.87 3.19 114.28 3.23 113.68 3.23C113.09 3.23 112.60 3.19 112.38 3.19C112.20 3.19 112.10 3.21 112.10 3.44C112.10 3.68 112.21 3.70 112.38 3.70L112.99 3.70C113.05 3.70 113.06 5.59 113.06 7.18L113.06 8.61C113.06 10.08 113.05 12.18 112.98 12.18L112.17 12.18C111.94 12.18 111.92 12.19 111.92 12.39ZM129.99 12.39C129.99 12.63 130.02 12.68 130.21 12.68C130.54 12.68 131.50 12.64 131.92 12.64C132.34 12.64 136.85 12.68 137.17 12.68C137.30 12.68 137.45 12.66 137.45 12.49C137.45 12.07 137.49 11.23 137.49 10.53C137.49 10.39 137.34 10.39 137.21 10.39C137.10 10.39 136.98 10.39 136.98 10.51C136.96 11.06 136.96 11.41 136.93 11.76C136.91 12.01 136.91 12.04 136.81 12.04C136.65 12.04 134.02 12.08 132.52 12.08C132.45 12.08 132.41 10.11 132.37 8.26C132.37 8.06 132.41 8.09 132.55 8.09L134.83 8.09C135.53 8.09 135.56 8.20 135.56 8.30L135.56 9.00C135.56 9.14 135.74 9.14 135.86 9.14C135.95 9.14 136.08 9.13 136.08 9.02C136.08 8.83 136.05 8.33 136.05 7.83C136.05 7.32 136.08 6.83 136.08 6.71C136.08 6.59 135.94 6.58 135.84 6.58C135.73 6.58 135.56 6.59 135.56 6.72L135.56 7.45C135.56 7.62 135.11 7.63 134.83 7.63L132.50 7.63C132.38 7.63 132.37 7.63 132.37 7.45C132.36 6.75 132.34 6.06 132.34 5.46C132.34 5.12 132.34 3.71 132.43 3.71C133.66 3.71 136.16 3.75 136.16 3.81C136.16 3.99 136.12 4.83 136.12 4.89C136.12 5.04 136.19 5.10 136.37 5.10C136.57 5.10 136.64 5.08 136.64 4.94C136.64 3.85 136.70 3.36 136.70 3.09C136.70 2.91 136.61 2.90 136.42 2.90C136.22 2.90 136.22 2.95 136.19 3.11C136.18 3.25 136.25 3.25 135.34 3.25C134.72 3.25 132.58 3.29 131.81 3.29C131.32 3.29 130.38 3.25 130.28 3.25C130.16 3.25 130.10 3.30 130.10 3.49C130.10 3.72 130.17 3.74 130.34 3.74L131.00 3.74C131.05 3.74 131.12 4.79 131.12 5.71C131.12 5.80 131.18 8.27 131.18 9.83L131.18 11.17C131.18 11.84 131.15 12.18 131.12 12.18L130.27 12.18C130.05 12.18 129.99 12.21 129.99 12.39ZM155.33 7.84C155.33 10.93 157.51 12.25 159.98 12.59C160.09 12.60 160.13 12.60 160.13 12.61C160.13 12.63 160.12 12.64 160.03 12.68C159.60 12.89 158.65 13.30 158.30 13.40C158.00 13.47 157.75 13.48 157.51 13.48C157.42 13.48 157.30 13.47 157.21 13.47C156.97 13.47 156.81 13.51 156.81 13.72C156.81 13.90 157.14 14.35 157.36 14.35C157.50 14.35 157.96 14.10 158.30 14.10C159.03 14.10 161.25 15.26 163.18 15.26C164.22 15.26 165.42 14.38 165.42 14.14C165.42 14.06 165.24 13.86 165.19 13.86C165.06 13.86 164.64 14.29 163.69 14.29C163.09 14.29 162.13 13.93 161.18 13.72C160.61 13.59 159.78 13.57 159.33 13.54C159.10 13.52 159.22 13.48 159.33 13.43C159.95 13.15 161.34 12.54 161.67 12.45C163.69 11.87 165.12 10.11 165.12 7.84C165.12 5.10 163.03 3.11 160.23 3.11C157.64 3.11 155.33 4.79 155.33 7.84ZM156.63 7.62C156.63 5.49 158.12 3.58 160.09 3.58C162.34 3.58 163.66 5.82 163.66 7.95C163.66 11.06 161.22 12.31 160.82 12.31C160.51 12.31 158.59 11.80 157.81 10.91C157.11 10.11 156.63 8.89 156.63 7.62ZM173.22 3.51C173.22 3.75 173.31 3.77 173.47 3.77L174.01 3.77C174.06 3.77 174.06 4.12 174.06 4.55C174.06 5.66 174.05 8.96 174.05 9.42C174.05 11.13 174.30 12.80 177.16 12.80C178.23 12.80 179.40 12.38 180.05 12.00C180.31 11.86 180.60 11.72 180.68 11.72C180.95 11.72 181.22 12.74 181.55 12.74C181.87 12.74 181.89 12.35 181.89 12.25C181.89 11.96 181.94 10.08 181.99 8.16C182.04 6.12 182.03 3.77 182.14 3.77L182.46 3.77C182.69 3.77 182.76 3.75 182.76 3.56C182.76 3.32 182.71 3.26 182.52 3.26C182.38 3.26 181.85 3.30 181.43 3.30C181.01 3.30 180.21 3.26 179.98 3.26C179.80 3.26 179.70 3.28 179.70 3.51C179.70 3.75 179.82 3.77 179.98 3.77L180.68 3.77C180.75 3.77 180.77 4.30 180.77 4.87L180.77 9.14C180.77 11.19 180.77 11.12 180.43 11.34C180.04 11.61 179.23 12.08 178.05 12.08C176.08 12.08 175.28 11.17 175.28 9.41C175.28 8.82 175.35 3.77 175.46 3.77L176.37 3.77C176.60 3.77 176.64 3.75 176.64 3.56C176.64 3.32 176.62 3.26 176.43 3.26C176.11 3.26 175.22 3.30 174.80 3.30C174.38 3.30 173.70 3.26 173.47 3.26C173.29 3.26 173.22 3.28 173.22 3.51ZM190.79 12.39C190.79 12.63 190.82 12.68 191.02 12.68C191.34 12.68 192.30 12.64 192.72 12.64C193.14 12.64 197.65 12.68 197.97 12.68C198.10 12.68 198.25 12.66 198.25 12.49C198.25 12.07 198.30 11.23 198.30 10.53C198.30 10.39 198.14 10.39 198.02 10.39C197.90 10.39 197.78 10.39 197.78 10.51C197.76 11.06 197.76 11.41 197.74 11.76C197.71 12.01 197.71 12.04 197.61 12.04C197.46 12.04 194.82 12.08 193.33 12.08C193.26 12.08 193.21 10.11 193.17 8.26C193.17 8.06 193.21 8.09 193.35 8.09L195.64 8.09C196.34 8.09 196.36 8.20 196.36 8.30L196.36 9.00C196.36 9.14 196.55 9.14 196.66 9.14C196.76 9.14 196.88 9.13 196.88 9.02C196.88 8.83 196.85 8.33 196.85 7.83C196.85 7.32 196.88 6.83 196.88 6.71C196.88 6.59 196.74 6.58 196.64 6.58C196.53 6.58 196.36 6.59 196.36 6.72L196.36 7.45C196.36 7.62 195.92 7.63 195.64 7.63L193.30 7.63C193.19 7.63 193.17 7.63 193.17 7.45C193.16 6.75 193.14 6.06 193.14 5.46C193.14 5.12 193.14 3.71 193.23 3.71C194.46 3.71 196.97 3.75 196.97 3.81C196.97 3.99 196.92 4.83 196.92 4.89C196.92 5.04 196.99 5.10 197.18 5.10C197.37 5.10 197.44 5.08 197.44 4.94C197.44 3.85 197.50 3.36 197.50 3.09C197.50 2.91 197.41 2.90 197.22 2.90C197.02 2.90 197.02 2.95 196.99 3.11C196.98 3.25 197.05 3.25 196.14 3.25C195.52 3.25 193.38 3.29 192.61 3.29C192.12 3.29 191.18 3.25 191.09 3.25C190.96 3.25 190.90 3.30 190.90 3.49C190.90 3.72 190.97 3.74 191.14 3.74L191.80 3.74C191.86 3.74 191.93 4.79 191.93 5.71C191.93 5.80 191.98 8.27 191.98 9.83L191.98 11.17C191.98 11.84 191.95 12.18 191.93 12.18L191.07 12.18C190.85 12.18 190.79 12.21 190.79 12.39ZM206.26 3.51C206.26 3.72 206.33 3.79 206.53 3.79L207.34 3.77C207.44 3.77 207.48 6.61 207.48 8.55L207.48 10.42C207.48 11.30 207.47 12.18 207.42 12.18L206.82 12.18C206.60 12.18 206.53 12.19 206.53 12.39C206.53 12.63 206.57 12.68 206.77 12.68C206.89 12.68 207.72 12.64 208.14 12.64C208.56 12.64 209.33 12.68 209.65 12.68C209.82 12.68 209.85 12.61 209.85 12.40C209.85 12.24 209.82 12.18 209.65 12.18L208.84 12.18C208.77 12.18 208.68 9.18 208.68 8.37C208.68 8.30 208.68 8.26 208.80 8.26C209.19 8.26 209.79 8.27 210.08 8.27C212.32 8.32 212.46 10.00 212.46 11.68L212.46 12.49C212.46 12.61 212.52 12.64 212.62 12.64C212.62 12.64 214.06 12.68 214.54 12.68C214.70 12.68 214.76 12.64 214.76 12.53C214.76 12.24 214.70 12.18 214.55 12.18L213.91 12.18C213.81 12.18 213.78 12.14 213.75 11.31C213.67 8.99 212.30 8.34 211.39 8.05C211.25 8.01 211.27 8.01 211.39 7.95C211.97 7.69 213.29 6.94 213.29 5.63C213.29 3.63 211.60 3.21 210.20 3.21C209.87 3.21 208.59 3.29 208.17 3.29C207.75 3.29 206.77 3.26 206.54 3.26C206.36 3.26 206.26 3.28 206.26 3.51ZM208.68 7.80L208.68 4.40C208.68 4.05 208.71 3.68 208.75 3.68C208.96 3.65 209.24 3.65 209.47 3.65C210.77 3.65 212.02 4.47 212.02 5.82C212.02 6.99 211.47 7.57 210.81 7.88C210.77 7.90 210.73 7.90 210.66 7.90C210.18 7.88 209.47 7.88 208.87 7.87C208.70 7.87 208.68 7.85 208.68 7.80ZM221.40 3.44C221.40 3.68 221.48 3.70 221.65 3.70L222.05 3.70C222.18 3.70 224.43 7.74 224.84 8.50C224.90 8.60 224.94 8.65 224.94 8.81C224.94 10.50 224.92 12.18 224.80 12.18L224.08 12.18C223.86 12.18 223.82 12.19 223.82 12.39C223.82 12.63 223.83 12.68 224.03 12.68C224.22 12.68 225.04 12.64 225.62 12.64C226.45 12.64 226.98 12.68 227.30 12.68C227.47 12.68 227.50 12.61 227.50 12.40C227.50 12.24 227.47 12.18 227.30 12.18L226.34 12.18C226.24 12.18 226.21 9.72 226.21 8.22C226.21 8.18 226.21 8.15 226.25 8.09C226.80 7.22 228.75 3.70 228.82 3.70L229.29 3.70C229.46 3.70 229.56 3.68 229.56 3.44C229.56 3.22 229.47 3.19 229.29 3.19C229.07 3.19 228.83 3.23 228.23 3.23C227.64 3.23 227.30 3.19 227.14 3.19C226.94 3.19 226.90 3.25 226.90 3.49C226.90 3.68 226.97 3.70 227.19 3.70L227.92 3.70C227.93 3.70 227.95 3.71 227.95 3.74C227.95 4.05 226.38 6.99 226.00 7.71C225.89 7.92 225.89 7.88 225.78 7.67C225.37 6.89 224.08 4.56 223.79 3.85C223.73 3.71 223.72 3.70 223.90 3.70L224.73 3.70C224.95 3.70 224.98 3.68 224.98 3.49C224.98 3.25 224.94 3.19 224.78 3.19C224.55 3.19 223.93 3.23 223.13 3.23C222.32 3.23 221.83 3.19 221.65 3.19C221.47 3.19 221.40 3.21 221.40 3.44ZM236.19 14.55C236.19 14.64 236.26 14.83 236.39 14.83C236.56 14.83 238 13.45 238 12.25C238 11.86 237.22 11.33 236.96 11.33C236.87 11.33 236.25 11.66 236.25 11.93C236.25 12.21 237.17 12.45 237.17 13.08C237.17 13.78 236.19 14.42 236.19 14.55ZM255.91 7.91C255.91 11.31 258.27 12.87 260.86 12.87C262.64 12.87 264.42 11.90 264.46 11.59C264.63 10.29 264.68 9.70 264.68 9.66C264.68 9.56 264.64 9.52 264.47 9.51C264.42 9.51 264.36 9.49 264.32 9.49C264.21 9.49 264.15 9.53 264.12 9.70L263.94 11.33C263.93 11.45 262.82 12.24 261.25 12.24C259.13 12.24 257.42 10.29 257.42 7.94C257.42 5.42 258.85 3.54 260.85 3.54C262.70 3.54 264.04 5.01 264.04 5.17C264.04 5.29 263.98 6.40 263.98 6.45C263.98 6.59 264.03 6.64 264.29 6.64C264.49 6.64 264.56 6.62 264.56 6.44C264.56 5.73 264.61 3.92 264.61 3.67C264.61 3.47 264.50 3.44 264.29 3.44C264.07 3.44 264.04 3.50 264.04 3.67L264.04 4.05C264.04 4.16 264.00 4.16 263.87 4.06C263.59 3.86 262.61 3.04 260.95 3.04C258.10 3.04 255.91 4.96 255.91 7.91ZM273.07 3.51C273.07 3.72 273.14 3.79 273.34 3.79L274.15 3.77C274.25 3.77 274.29 6.61 274.29 8.55L274.29 10.42C274.29 11.30 274.27 12.18 274.23 12.18L273.63 12.18C273.41 12.18 273.34 12.19 273.34 12.39C273.34 12.63 273.38 12.68 273.57 12.68C273.70 12.68 274.53 12.64 274.95 12.64C275.37 12.64 276.14 12.68 276.46 12.68C276.63 12.68 276.65 12.61 276.65 12.40C276.65 12.24 276.63 12.18 276.46 12.18L275.65 12.18C275.58 12.18 275.49 9.18 275.49 8.37C275.49 8.30 275.49 8.26 275.60 8.26C276.00 8.26 276.60 8.27 276.89 8.27C279.13 8.32 279.27 10.00 279.27 11.68L279.27 12.49C279.27 12.61 279.33 12.64 279.43 12.64C279.43 12.64 280.87 12.68 281.34 12.68C281.51 12.68 281.57 12.64 281.57 12.53C281.57 12.24 281.51 12.18 281.36 12.18L280.71 12.18C280.62 12.18 280.59 12.14 280.56 11.31C280.48 8.99 279.10 8.34 278.19 8.05C278.05 8.01 278.08 8.01 278.19 7.95C278.78 7.69 280.10 6.94 280.10 5.63C280.10 3.63 278.40 3.21 277.00 3.21C276.68 3.21 275.39 3.29 274.97 3.29C274.55 3.29 273.57 3.26 273.35 3.26C273.17 3.26 273.07 3.28 273.07 3.51ZM275.49 7.80L275.49 4.40C275.49 4.05 275.52 3.68 275.56 3.68C275.77 3.65 276.05 3.65 276.28 3.65C277.58 3.65 278.82 4.47 278.82 5.82C278.82 6.99 278.28 7.57 277.62 7.88C277.58 7.90 277.54 7.90 277.47 7.90C276.99 7.88 276.28 7.88 275.67 7.87C275.51 7.87 275.49 7.85 275.49 7.80ZM288.90 12.39C288.90 12.63 288.90 12.68 289.10 12.68C289.27 12.68 289.59 12.64 290.16 12.64C290.78 12.64 291.33 12.68 291.48 12.68C291.65 12.68 291.65 12.61 291.65 12.40C291.65 12.24 291.65 12.18 291.48 12.18L290.40 12.18C290.40 12.18 290.39 12.18 290.39 12.17C290.40 11.87 291.17 9.90 291.52 9.02C291.59 8.83 291.61 8.79 291.82 8.79L294.64 8.79C294.78 8.79 294.78 8.81 294.85 9.03C295.12 9.77 295.83 11.89 295.83 12.17C295.83 12.18 295.82 12.18 295.82 12.18L295.05 12.18C294.83 12.18 294.81 12.19 294.81 12.39C294.81 12.63 294.83 12.68 294.99 12.68C295.32 12.68 296.18 12.64 296.60 12.64C297.02 12.64 297.70 12.68 297.91 12.68C298.05 12.68 298.06 12.61 298.06 12.40C298.06 12.24 298.05 12.18 297.91 12.18L297.42 12.18C297.32 12.18 296.30 9.34 295.74 7.78L294.06 3.07C294.04 3.00 293.97 2.94 293.89 2.94C293.76 2.94 293.66 3.16 293.58 3.35C293.43 3.71 293.19 3.84 293.08 4.13L291.59 7.57C291.41 8.01 289.70 12.18 289.58 12.18L289.16 12.18C288.93 12.18 288.90 12.19 288.90 12.39ZM291.80 8.33C291.80 8.30 291.83 8.23 291.87 8.13L293.24 4.77C293.29 4.66 293.31 4.61 293.34 4.61C293.36 4.61 293.37 4.63 293.41 4.77L294.57 8.18C294.60 8.25 294.62 8.29 294.62 8.32C294.62 8.36 294.59 8.37 294.49 8.37L291.98 8.37C291.80 8.37 291.80 8.34 291.80 8.33ZM305.61 7.91C305.61 11.31 307.97 12.87 310.56 12.87C312.34 12.87 314.12 11.90 314.16 11.59C314.33 10.29 314.38 9.70 314.38 9.66C314.38 9.56 314.34 9.52 314.17 9.51C314.12 9.51 314.06 9.49 314.02 9.49C313.91 9.49 313.85 9.53 313.82 9.70L313.64 11.33C313.63 11.45 312.52 12.24 310.95 12.24C308.83 12.24 307.12 10.29 307.12 7.94C307.12 5.42 308.55 3.54 310.55 3.54C312.40 3.54 313.74 5.01 313.74 5.17C313.74 5.29 313.68 6.40 313.68 6.45C313.68 6.59 313.73 6.64 313.99 6.64C314.19 6.64 314.26 6.62 314.26 6.44C314.26 5.73 314.31 3.92 314.31 3.67C314.31 3.47 314.20 3.44 313.99 3.44C313.77 3.44 313.74 3.50 313.74 3.67L313.74 4.05C313.74 4.16 313.70 4.16 313.57 4.06C313.29 3.86 312.31 3.04 310.65 3.04C307.80 3.04 305.61 4.96 305.61 7.91ZM322.77 12.39C322.77 12.63 322.78 12.68 322.98 12.68C323.30 12.68 324.20 12.64 324.62 12.64C325.04 12.64 325.99 12.68 326.31 12.68C326.48 12.68 326.49 12.61 326.49 12.40C326.49 12.24 326.47 12.18 326.30 12.18L325.29 12.18C325.19 12.18 325.16 10.12 325.16 8.46C325.16 8.30 325.16 8.30 325.33 8.30L325.60 8.30C325.81 8.30 325.81 8.32 325.88 8.40L328.92 12.00C329.01 12.11 329.08 12.18 328.87 12.18L328.41 12.18C328.23 12.18 328.16 12.19 328.16 12.39C328.16 12.63 328.16 12.68 328.36 12.68C328.68 12.68 329.38 12.64 329.80 12.64C330.22 12.64 330.90 12.68 331.23 12.68C331.39 12.68 331.39 12.61 331.39 12.40C331.39 12.24 331.39 12.18 331.23 12.18L331.00 12.18C330.82 12.18 330.72 12.10 330.60 11.96L326.83 7.62C326.69 7.45 326.66 7.50 326.79 7.36C327.24 6.83 329.77 3.77 329.84 3.77L330.51 3.77C330.74 3.77 330.76 3.75 330.76 3.56C330.76 3.32 330.76 3.26 330.57 3.26C330.37 3.26 329.92 3.30 329.41 3.30C328.87 3.30 328.40 3.26 328.17 3.26C327.99 3.26 327.89 3.28 327.89 3.51C327.89 3.75 328.01 3.77 328.17 3.77L328.73 3.77C328.90 3.77 328.90 3.84 328.79 3.99C328.26 4.66 325.91 7.92 325.61 7.92L325.30 7.92C325.16 7.92 325.16 7.88 325.16 7.69L325.16 5.94C325.16 5.21 325.23 3.77 325.33 3.77L326.10 3.77C326.33 3.77 326.37 3.75 326.37 3.56C326.37 3.32 326.35 3.26 326.16 3.26C325.84 3.26 325.07 3.30 324.65 3.30C324.06 3.30 323.40 3.26 323.18 3.26C322.99 3.26 322.90 3.28 322.90 3.51C322.90 3.75 323.01 3.77 323.18 3.77L323.82 3.77C323.88 3.77 323.90 4.86 323.90 5.78L323.90 9.84C323.90 11.00 323.89 12.18 323.81 12.18L323.06 12.18C322.84 12.18 322.77 12.19 322.77 12.39ZM348.40 5.01C348.40 5.17 348.59 5.17 348.71 5.17C348.87 5.17 348.91 5.15 348.92 4.97L349.03 3.89C349.05 3.81 349.59 3.75 350.35 3.75L352.34 3.75C352.39 3.75 352.42 4.35 352.42 4.97C352.42 6.43 352.37 12.18 352.24 12.18L351.37 12.18C351.15 12.18 351.11 12.19 351.11 12.39C351.11 12.63 351.12 12.68 351.32 12.68C351.64 12.68 352.62 12.64 353.04 12.64C353.46 12.64 354.40 12.68 354.72 12.68C354.89 12.68 354.91 12.61 354.91 12.40C354.91 12.24 354.89 12.18 354.72 12.18L353.72 12.18C353.70 12.18 353.70 11.76 353.70 11.31C353.70 9.56 353.78 5.96 353.78 5.92C353.79 5.18 353.79 3.75 353.89 3.75L355.50 3.75C356.22 3.75 357.04 3.78 357.04 3.85C357.04 3.99 357.00 4.90 357.00 4.97C357.00 5.12 357.07 5.17 357.25 5.17C357.45 5.17 357.52 5.17 357.52 5.03C357.52 3.93 357.57 3.40 357.57 3.14C357.57 2.94 357.49 2.94 357.29 2.94C357.14 2.94 357.08 2.98 357.07 3.16C357.07 3.23 356.43 3.28 355.59 3.28L350.59 3.28C349.93 3.28 349.12 3.28 349.12 3.21L349.12 3.07C349.12 2.94 348.99 2.94 348.89 2.94C348.67 2.94 348.64 3.00 348.63 3.19C348.57 3.89 348.40 4.97 348.40 5.01ZM365.33 12.39C365.33 12.63 365.33 12.68 365.53 12.68C365.85 12.68 366.79 12.64 367.21 12.64C367.63 12.64 368.45 12.68 368.77 12.68C368.94 12.68 368.94 12.61 368.94 12.40C368.94 12.24 368.94 12.18 368.77 12.18L367.85 12.18C367.77 12.18 367.72 9.93 367.72 8.20C367.72 8.01 367.72 8.01 367.85 8.01L373.09 8.01C373.16 8.01 373.17 8.01 373.17 8.18L373.17 9.91C373.17 11.05 373.16 12.18 373.10 12.18L372.33 12.18C372.11 12.18 372.06 12.19 372.06 12.39C372.06 12.63 372.08 12.68 372.27 12.68C372.60 12.68 373.44 12.64 373.86 12.64C374.28 12.64 374.86 12.68 375.19 12.68C375.35 12.68 375.37 12.61 375.37 12.40C375.37 12.24 375.35 12.18 375.19 12.18L374.44 12.18C374.40 12.18 374.39 9.27 374.39 7.04C374.39 5.40 374.39 3.70 374.43 3.70L375.05 3.70C375.27 3.70 375.31 3.68 375.31 3.49C375.31 3.25 375.30 3.19 375.10 3.19C374.96 3.19 374.33 3.23 373.74 3.23C373.07 3.23 372.47 3.19 372.25 3.19C372.05 3.19 372.02 3.22 372.02 3.44C372.02 3.67 372.09 3.70 372.26 3.70L373.06 3.70C373.11 3.70 373.17 4.79 373.17 5.71L373.17 7.42C373.17 7.59 373.17 7.59 373.00 7.59L367.89 7.59C367.72 7.59 367.72 7.59 367.72 7.38C367.72 6.96 367.71 6.23 367.71 5.53C367.71 4.66 367.72 3.70 367.78 3.70L368.55 3.70C368.77 3.70 368.82 3.68 368.82 3.49C368.82 3.25 368.80 3.19 368.61 3.19C368.28 3.19 367.70 3.23 367.09 3.23C366.51 3.23 366.02 3.19 365.79 3.19C365.61 3.19 365.51 3.21 365.51 3.44C365.51 3.68 365.62 3.70 365.79 3.70L366.41 3.70C366.46 3.70 366.48 5.59 366.48 7.18L366.48 8.61C366.48 10.08 366.46 12.18 366.39 12.18L365.58 12.18C365.36 12.18 365.33 12.19 365.33 12.39ZM383.40 12.39C383.40 12.63 383.43 12.68 383.63 12.68C383.95 12.68 384.92 12.64 385.34 12.64C385.76 12.64 390.26 12.68 390.59 12.68C390.71 12.68 390.87 12.66 390.87 12.49C390.87 12.07 390.91 11.23 390.91 10.53C390.91 10.39 390.75 10.39 390.63 10.39C390.52 10.39 390.39 10.39 390.39 10.51C390.38 11.06 390.38 11.41 390.35 11.76C390.32 12.01 390.32 12.04 390.22 12.04C390.07 12.04 387.44 12.08 385.94 12.08C385.87 12.08 385.83 10.11 385.78 8.26C385.78 8.06 385.83 8.09 385.97 8.09L388.25 8.09C388.95 8.09 388.98 8.20 388.98 8.30L388.98 9.00C388.98 9.14 389.16 9.14 389.27 9.14C389.37 9.14 389.49 9.13 389.49 9.02C389.49 8.83 389.47 8.33 389.47 7.83C389.47 7.32 389.49 6.83 389.49 6.71C389.49 6.59 389.35 6.58 389.26 6.58C389.14 6.58 388.98 6.59 388.98 6.72L388.98 7.45C388.98 7.62 388.53 7.63 388.25 7.63L385.91 7.63C385.80 7.63 385.78 7.63 385.78 7.45C385.77 6.75 385.76 6.06 385.76 5.46C385.76 5.12 385.76 3.71 385.84 3.71C387.07 3.71 389.58 3.75 389.58 3.81C389.58 3.99 389.54 4.83 389.54 4.89C389.54 5.04 389.61 5.10 389.79 5.10C389.98 5.10 390.05 5.08 390.05 4.94C390.05 3.85 390.11 3.36 390.11 3.09C390.11 2.91 390.03 2.90 389.83 2.90C389.63 2.90 389.63 2.95 389.61 3.11C389.59 3.25 389.66 3.25 388.75 3.25C388.14 3.25 385.99 3.29 385.22 3.29C384.73 3.29 383.80 3.25 383.70 3.25C383.57 3.25 383.52 3.30 383.52 3.49C383.52 3.72 383.59 3.74 383.75 3.74L384.41 3.74C384.47 3.74 384.54 4.79 384.54 5.71C384.54 5.80 384.59 8.27 384.59 9.83L384.59 11.17C384.59 11.84 384.57 12.18 384.54 12.18L383.68 12.18C383.46 12.18 383.40 12.21 383.40 12.39ZM408.67 3.51C408.67 3.75 408.72 3.79 408.93 3.79L409.85 3.77C409.91 3.77 409.91 4.47 409.91 5.24L409.91 5.96C409.91 7.70 409.89 12.18 409.78 12.18L409.11 12.18C408.88 12.18 408.81 12.19 408.81 12.39C408.81 12.63 408.83 12.68 409.02 12.68C409.15 12.68 410.13 12.64 410.55 12.64C410.97 12.64 411.84 12.68 412.16 12.68C412.33 12.68 412.36 12.61 412.36 12.40C412.36 12.24 412.33 12.18 412.16 12.18L411.17 12.18C411.12 12.18 411.11 10.60 411.11 9.58L411.11 8.65C411.11 8.57 411.11 8.54 411.21 8.54C411.60 8.54 411.92 8.58 412.43 8.58C414.41 8.58 415.81 7.83 415.81 6.01C415.81 4.09 414.33 3.22 412.41 3.22C412.09 3.22 411.00 3.29 410.58 3.29C410.34 3.29 409.15 3.26 408.93 3.26C408.74 3.26 408.67 3.28 408.67 3.51ZM411.12 8.05L411.12 4.40C411.12 4.05 411.14 3.70 411.18 3.68C411.31 3.67 411.47 3.67 411.61 3.67C413.27 3.67 414.53 4.47 414.53 5.80C414.53 7.57 413.20 8.19 411.61 8.19C411.36 8.19 411.12 8.16 411.12 8.05ZM423.50 12.46C423.50 12.63 423.51 12.70 423.70 12.70C423.85 12.70 425.08 12.64 425.47 12.64C426.33 12.64 427.21 12.70 428.06 12.70C430.68 12.70 433.08 11.07 433.08 7.91C433.08 4.89 430.74 3.07 427.70 3.07C427.14 3.07 425.88 3.23 424.84 3.23C424.37 3.23 423.91 3.22 423.85 3.22C423.67 3.22 423.65 3.32 423.65 3.49C423.65 3.68 423.72 3.70 423.85 3.70L424.82 3.67C424.84 3.67 424.84 4.20 424.84 4.72C424.84 5.91 424.76 12.21 424.68 12.21L423.78 12.21C423.60 12.21 423.50 12.22 423.50 12.46ZM426.08 11.40C426.08 9.46 426.08 7.52 426.09 5.60C426.09 5.03 426.13 3.61 426.17 3.60C426.47 3.53 427.06 3.51 427.41 3.51C429.97 3.51 431.58 5.75 431.58 7.73C431.58 8.95 431.54 12.25 426.86 12.25C426.59 12.25 426.19 12.25 426.09 12.21C426.08 12.19 426.08 11.79 426.08 11.40ZM441.18 3.49C441.18 3.72 441.29 3.74 441.46 3.74L442.08 3.74C442.13 3.74 442.20 4.79 442.20 5.71C442.20 5.80 442.26 8.27 442.26 9.83L442.26 11.17C442.26 11.84 442.25 12.18 442.19 12.18L441.60 12.18C441.38 12.18 441.31 12.19 441.31 12.39C441.31 12.63 441.32 12.68 441.52 12.68C441.73 12.68 442.57 12.64 442.99 12.64C443.41 12.64 444.35 12.68 444.67 12.68C444.84 12.68 444.86 12.61 444.86 12.40C444.86 12.24 444.84 12.18 444.67 12.18L443.53 12.18C443.48 12.18 443.49 10.16 443.45 8.33C443.45 8.08 443.44 8.09 443.63 8.09L446.05 8.09C446.75 8.09 446.78 8.19 446.78 8.30L446.78 9.16C446.78 9.28 446.96 9.28 447.08 9.28C447.17 9.28 447.30 9.28 447.30 9.17C447.30 8.99 447.27 8.33 447.27 7.83C447.27 7.32 447.30 6.82 447.30 6.69C447.30 6.58 447.19 6.58 447.06 6.58C446.89 6.58 446.78 6.58 446.78 6.71L446.78 7.45C446.78 7.62 446.33 7.63 446.05 7.63L443.63 7.63C443.42 7.63 443.45 7.66 443.45 7.45C443.44 7.13 443.42 6.15 443.42 5.26C443.42 4.52 443.44 3.71 443.51 3.71C444.91 3.71 447.09 3.75 447.38 3.79C447.38 3.96 447.34 4.82 447.34 4.89C447.34 5.04 447.41 5.10 447.59 5.10C447.79 5.10 447.86 5.08 447.86 4.94C447.86 3.85 447.92 3.36 447.92 3.09C447.92 2.93 447.83 2.90 447.64 2.90C447.51 2.90 447.44 2.90 447.41 3.11C447.40 3.25 447.47 3.25 446.52 3.25C445.91 3.25 443.63 3.29 442.89 3.29C442.40 3.29 441.46 3.25 441.36 3.25C441.24 3.25 441.18 3.30 441.18 3.49ZM456.44 12.07C456.44 12.31 456.90 12.75 457.31 12.75C457.49 12.75 457.94 12.35 457.94 11.90C457.94 11.51 457.37 11.20 457.10 11.20C456.83 11.20 456.44 11.76 456.44 12.07ZM456.68 3.53C456.68 4.28 456.86 6.93 456.95 10.05C456.95 10.19 457.07 10.23 457.17 10.23C457.27 10.23 457.41 10.19 457.41 10.05C457.58 6.36 457.77 3.64 457.77 3.47C457.77 3.19 457.62 3.14 457.30 3.14C456.93 3.14 456.68 3.21 456.68 3.53Z"></path></g></svg>