<svg data-v-423bf9ae="" xmlns="http://www.w3.org/2000/svg" viewBox="0 0 332.52409482401674 60" class="font"><!----><!----><!----><g data-v-423bf9ae="" id="ed22d2e8-0246-4838-9a98-be295a339c9a" fill="white" transform="matrix(3.853564622736968,0,0,3.853564622736968,-2.9287080056431307,-9.32562668102711)"><path d="M8.16 17.14Q5.19 17.14 5.19 14.71L5.19 14.71L5.19 14.11Q3.88 13.93 2.87 13.15Q1.86 12.36 1.31 11.12Q0.76 9.87 0.76 8.30L0.76 8.30Q0.76 6.58 1.43 5.24Q2.10 3.91 3.30 3.16Q4.51 2.42 6.03 2.42L6.03 2.42Q7.56 2.42 8.76 3.16Q9.97 3.91 10.64 5.24Q11.31 6.58 11.31 8.30L11.31 8.30Q11.31 9.86 10.76 11.10Q10.21 12.35 9.21 13.13Q8.22 13.92 6.92 14.11L6.92 14.11L6.92 15.05Q6.92 16.81 8.62 16.81L8.62 16.81L8.62 17.14L8.16 17.14ZM6.03 13.86Q7.04 13.86 7.84 13.33Q8.64 12.80 9.09 11.79Q9.55 10.78 9.55 9.38L9.55 9.38L9.55 7.22Q9.55 5.82 9.09 4.82Q8.64 3.81 7.84 3.28Q7.04 2.74 6.03 2.74L6.03 2.74Q5.01 2.74 4.22 3.28Q3.43 3.81 2.98 4.82Q2.52 5.82 2.52 7.22L2.52 7.22L2.52 9.38Q2.52 10.78 2.98 11.79Q3.43 12.80 4.22 13.33Q5.01 13.86 6.03 13.86L6.03 13.86ZM15.46 14.04Q14.45 14.04 13.87 13.54Q13.29 13.03 13.29 12.04L13.29 12.04L13.29 7.07L12.31 6.93L12.31 6.65L14.69 6.65L14.69 12.01Q14.69 12.73 14.98 13.13Q15.27 13.54 15.89 13.54L15.89 13.54Q16.53 13.54 17.13 13.11Q17.72 12.68 18.19 12.05L18.19 12.05L18.19 7.07L17.21 6.93L17.21 6.65L19.59 6.65L19.59 13.48L20.57 13.62L20.57 13.90L18.19 13.90L18.19 12.56Q17.68 13.26 16.98 13.65Q16.27 14.04 15.46 14.04L15.46 14.04ZM25.21 14.04Q24.18 14.04 23.34 13.57Q22.50 13.10 22.01 12.25Q21.52 11.40 21.52 10.28L21.52 10.28Q21.52 9.16 22.00 8.31Q22.48 7.46 23.30 6.99Q24.12 6.52 25.13 6.52L25.13 6.52Q26.01 6.52 26.71 6.92Q27.41 7.31 27.80 8.00Q28.20 8.69 28.21 9.59L28.21 9.59L23.06 9.59L23.06 10.98Q23.06 12.21 23.61 12.97Q24.16 13.73 25.21 13.73L25.21 13.73Q26.18 13.73 26.92 13.19Q27.66 12.64 27.83 11.77L27.83 11.77L28.15 11.77Q27.96 12.81 27.16 13.43Q26.36 14.04 25.21 14.04L25.21 14.04ZM23.07 9.24L26.67 9.24Q26.67 8.02 26.29 7.43Q25.91 6.83 25.12 6.83L25.12 6.83Q24.18 6.83 23.66 7.49Q23.14 8.15 23.07 9.24L23.07 9.24ZM29.15 13.90L29.15 13.62L30.13 13.48L30.13 7.07L29.15 6.93L29.15 6.65L31.53 6.65L31.53 7.73Q32.41 6.52 33.52 6.52L33.52 6.52Q34.05 6.52 34.45 6.80Q34.86 7.07 34.86 7.57L34.86 7.57Q34.86 7.94 34.62 8.18Q34.38 8.43 33.99 8.43L33.99 8.43Q33.54 8.43 33.26 8.08L33.26 8.08Q33.42 7.88 33.42 7.66L33.42 7.66Q33.42 7.42 33.26 7.27Q33.10 7.13 32.83 7.13L32.83 7.13Q32.54 7.13 32.23 7.40Q31.92 7.67 31.53 8.25L31.53 8.25L31.53 13.48L32.65 13.62L32.65 13.90L29.15 13.90ZM36.61 17.99Q35.88 17.99 35.43 17.63Q34.99 17.26 34.99 16.65L34.99 16.65Q34.99 16.23 35.23 15.97Q35.48 15.71 35.84 15.71L35.84 15.71Q36.11 15.71 36.32 15.82Q36.53 15.93 36.65 16.16L36.65 16.16Q36.44 16.45 36.44 16.77L36.44 16.77Q36.44 17.05 36.62 17.23Q36.81 17.42 37.09 17.42L37.09 17.42Q37.42 17.42 37.67 17.19Q37.91 16.97 38.11 16.41L38.11 16.41L38.95 14.00L35.70 7.08L34.76 6.94L34.76 6.66L38.25 6.66L38.25 6.94L37.27 7.11L39.61 12.11L41.27 7.29L40.07 6.94L40.07 6.66L42.59 6.66L42.59 6.94L41.64 7.29L38.50 16.41Q38.21 17.23 37.79 17.61Q37.38 17.99 36.61 17.99L36.61 17.99ZM50.61 17.14Q47.64 17.14 47.64 14.71L47.64 14.71L47.64 14.11Q46.33 13.93 45.32 13.15Q44.31 12.36 43.76 11.12Q43.20 9.87 43.20 8.30L43.20 8.30Q43.20 6.58 43.88 5.24Q44.55 3.91 45.75 3.16Q46.96 2.42 48.48 2.42L48.48 2.42Q50.01 2.42 51.21 3.16Q52.42 3.91 53.09 5.24Q53.76 6.58 53.76 8.30L53.76 8.30Q53.76 9.86 53.21 11.10Q52.65 12.35 51.66 13.13Q50.67 13.92 49.36 14.11L49.36 14.11L49.36 15.05Q49.36 16.81 51.07 16.81L51.07 16.81L51.07 17.14L50.61 17.14ZM48.48 13.86Q49.49 13.86 50.29 13.33Q51.09 12.80 51.54 11.79Q52.00 10.78 52.00 9.38L52.00 9.38L52.00 7.22Q52.00 5.82 51.54 4.82Q51.09 3.81 50.29 3.28Q49.49 2.74 48.48 2.74L48.48 2.74Q47.46 2.74 46.67 3.28Q45.88 3.81 45.42 4.82Q44.97 5.82 44.97 7.22L44.97 7.22L44.97 9.38Q44.97 10.78 45.42 11.79Q45.88 12.80 46.67 13.33Q47.46 13.86 48.48 13.86L48.48 13.86ZM57.90 14.04Q56.90 14.04 56.31 13.54Q55.73 13.03 55.73 12.04L55.73 12.04L55.73 7.07L54.75 6.93L54.75 6.65L57.13 6.65L57.13 12.01Q57.13 12.73 57.43 13.13Q57.72 13.54 58.34 13.54L58.34 13.54Q58.98 13.54 59.58 13.11Q60.17 12.68 60.63 12.05L60.63 12.05L60.63 7.07L59.65 6.93L59.65 6.65L62.03 6.65L62.03 13.48L63.01 13.62L63.01 13.90L60.63 13.90L60.63 12.56Q60.13 13.26 59.42 13.65Q58.72 14.04 57.90 14.04L57.90 14.04ZM66.05 14.04Q65.16 14.04 64.58 13.57Q64.01 13.10 64.01 12.18L64.01 12.18Q64.01 10.86 65.11 10.31Q66.22 9.76 67.68 9.76L67.68 9.76L68.61 9.76L68.61 8.68Q68.61 7.95 68.45 7.55Q68.29 7.15 67.96 6.99Q67.62 6.83 67.05 6.83L67.05 6.83Q66.39 6.83 66.07 7.09Q65.74 7.35 65.74 7.78L65.74 7.78Q65.74 8.19 66.14 8.32L66.14 8.32Q66.14 8.67 65.87 8.93Q65.60 9.20 65.24 9.20L65.24 9.20Q64.85 9.20 64.61 8.98Q64.37 8.76 64.37 8.32L64.37 8.32Q64.37 7.50 65.18 7.01Q66.00 6.52 67.21 6.52L67.21 6.52Q70.01 6.52 70.01 8.96L70.01 8.96L70.01 12.96Q70.01 13.27 70.15 13.43Q70.28 13.59 70.53 13.59L70.53 13.59Q70.77 13.59 70.91 13.43Q71.05 13.27 71.05 12.99L71.05 12.99L71.34 12.99Q71.34 13.48 71.03 13.76Q70.71 14.04 70.15 14.04L70.15 14.04Q69.51 14.04 69.07 13.67Q68.63 13.30 68.61 12.52L68.61 12.52Q68.28 13.23 67.58 13.64Q66.89 14.04 66.05 14.04L66.05 14.04ZM66.82 13.43Q67.20 13.43 67.60 13.20Q68.00 12.98 68.28 12.55Q68.56 12.12 68.61 11.52L68.61 11.52L68.61 10.07L67.68 10.07Q66.53 10.07 65.96 10.58Q65.39 11.09 65.39 12.01L65.39 12.01Q65.39 12.78 65.76 13.10Q66.12 13.43 66.82 13.43L66.82 13.43ZM75.53 14.04Q74.52 14.04 73.70 13.57Q72.87 13.10 72.39 12.24Q71.90 11.38 71.90 10.28L71.90 10.28Q71.90 9.11 72.41 8.26Q72.93 7.41 73.75 6.97Q74.58 6.52 75.53 6.52L75.53 6.52Q76.33 6.52 76.99 6.80Q77.64 7.07 78.03 7.56Q78.41 8.05 78.41 8.67L78.41 8.67Q78.41 9.13 78.18 9.37Q77.94 9.62 77.55 9.62L77.55 9.62Q77.17 9.62 76.92 9.37Q76.66 9.11 76.66 8.74L76.66 8.74Q76.87 8.60 76.96 8.43Q77.04 8.26 77.04 8.01L77.04 8.01Q77.04 7.49 76.63 7.16Q76.22 6.83 75.53 6.83L75.53 6.83Q74.52 6.83 73.98 7.55Q73.44 8.27 73.44 9.58L73.44 9.58L73.44 10.98Q73.44 12.22 73.97 12.98Q74.49 13.73 75.53 13.73L75.53 13.73Q76.48 13.73 77.19 13.20Q77.90 12.66 78.06 11.77L78.06 11.77L78.39 11.77Q78.19 12.81 77.41 13.43Q76.64 14.04 75.53 14.04L75.53 14.04ZM82.46 13.90L79.24 13.90L79.24 13.62L80.22 13.48L80.22 3.12L79.24 2.98L79.24 2.70L81.62 2.70L81.62 9.88L84.83 7.25L83.61 6.93L83.61 6.65L86.24 6.65L86.24 6.93L85.34 7.25L83.02 9.16L86.30 13.50L87.05 13.62L87.05 13.90L83.78 13.90L83.78 13.62L84.62 13.48L81.98 10.01L81.62 10.32L81.62 13.48L82.46 13.62L82.46 13.90Z"></path></g><!----><!----></svg>